<svg width="18" height="15" viewBox="0 0 18 15" fill="none" xmlns="http://www.w3.org/2000/svg">
<path id="Vector" d="M9.96919 14.7803C9.89947 14.7106 9.84415 14.6279 9.80641 14.5369C9.76867 14.4458 9.74924 14.3482 9.74924 14.2497C9.74924 14.1511 9.76867 14.0535 9.80641 13.9625C9.84415 13.8715 9.89947 13.7887 9.96919 13.7191L15.4392 8.24999L0.750293 8.24999C0.551391 8.24999 0.360635 8.17098 0.219989 8.03034C0.0793454 7.88969 0.000331542 7.69893 0.000331551 7.50003C0.00033156 7.30113 0.0793454 7.11037 0.219989 6.96973C0.360635 6.82908 0.551391 6.75007 0.750293 6.75007L15.4392 6.75007L9.9692 1.28098C9.82847 1.14025 9.74942 0.949391 9.74942 0.750378C9.74942 0.551365 9.82847 0.360504 9.9692 0.21978C10.1099 0.0790571 10.3008 -3.35061e-07 10.4998 -3.27844e-07C10.6988 -3.20628e-07 10.8897 0.0790572 11.0304 0.21978L17.78 6.96943C17.8498 7.03909 17.9051 7.1218 17.9428 7.21284C17.9806 7.30389 18 7.40148 18 7.50003C18 7.59859 17.9806 7.69618 17.9428 7.78722C17.9051 7.87827 17.8498 7.96098 17.78 8.03063L11.0304 14.7803C10.9607 14.85 10.878 14.9053 10.787 14.9431C10.6959 14.9808 10.5983 15.0002 10.4998 15.0002C10.4012 15.0002 10.3036 14.9808 10.2126 14.9431C10.1216 14.9053 10.0388 14.85 9.96919 14.7803Z" fill="#258FAD"/>
</svg>
