<svg width="22" height="28" viewBox="0 0 22 28" fill="none" xmlns="http://www.w3.org/2000/svg">
<path id="Vector" d="M11.8267 27.3708C14.6394 23.8508 21.0545 15.3193 21.0545 10.5272C21.0545 4.71533 16.3392 0 10.5272 0C4.71533 0 0 4.71533 0 10.5272C0 15.3193 6.41504 23.8508 9.22779 27.3708C9.90219 28.2097 11.1523 28.2097 11.8267 27.3708ZM10.5272 7.01816C11.4579 7.01816 12.3505 7.38787 13.0085 8.04595C13.6666 8.70403 14.0363 9.59658 14.0363 10.5272C14.0363 11.4579 13.6666 12.3505 13.0085 13.0085C12.3505 13.6666 11.4579 14.0363 10.5272 14.0363C9.59658 14.0363 8.70403 13.6666 8.04595 13.0085C7.38787 12.3505 7.01816 11.4579 7.01816 10.5272C7.01816 9.59658 7.38787 8.70403 8.04595 8.04595C8.70403 7.38787 9.59658 7.01816 10.5272 7.01816Z" fill="#017CFF"/>
</svg>
