<svg width="24" height="23" viewBox="0 0 24 23" fill="none" xmlns="http://www.w3.org/2000/svg">
<g id="icon_fax">
<path id="Vector" d="M4.4883 4.75843C4.4883 3.78268 4.48537 2.87427 4.4883 1.96585C4.49415 0.860338 5.07569 0.267087 6.16657 0.266111C10.0529 0.263184 13.9393 0.263184 17.8257 0.266111C18.8883 0.266111 19.4845 0.864241 19.4913 1.9278C19.4972 2.85183 19.4923 3.77488 19.4923 4.70866C20.0309 4.75647 20.5363 4.75355 21.0213 4.85307C22.7337 5.20629 23.9631 6.68259 23.9787 8.43307C24.0012 10.9368 23.9943 13.4416 23.9817 15.9453C23.9748 17.2684 23.0196 18.2168 21.7033 18.2373C20.991 18.2481 20.2777 18.2393 19.5215 18.2393C19.5108 18.4276 19.4942 18.5837 19.4932 18.7398C19.4903 19.5526 19.504 20.3664 19.4884 21.1792C19.4698 22.1217 18.8561 22.7296 17.9116 22.7316C13.9598 22.7374 10.009 22.7374 6.05729 22.7316C5.1196 22.7296 4.50488 22.1139 4.49122 21.1694C4.47659 20.2132 4.4883 19.257 4.4883 18.2422C3.7682 18.2422 3.09006 18.2451 2.41289 18.2422C0.914155 18.2315 -0.00206606 17.3045 -0.00401754 15.7892C-0.00694476 13.4152 -0.0079205 11.0412 -0.00401754 8.66725C-0.000114572 6.37425 1.59815 4.77306 3.88822 4.7594C4.06482 4.75843 4.24143 4.7594 4.4883 4.7594V4.75843ZM19.5128 16.7522C20.1821 16.7522 20.8125 16.7542 21.4428 16.7522C22.2409 16.7493 22.48 16.5093 22.481 15.6945C22.4829 13.3859 22.4858 11.0773 22.481 8.76872C22.4771 7.14021 21.5716 6.24741 19.9314 6.24741C14.6311 6.24546 9.3309 6.24546 4.03067 6.24741C2.40119 6.24741 1.50643 7.14704 1.50058 8.78921C1.4957 10.1875 1.4996 11.5857 1.4996 12.9839C1.4996 13.9431 1.50253 14.9022 1.4996 15.8614C1.49862 16.3288 1.69085 16.6956 2.16993 16.7278C2.92516 16.7776 3.68624 16.7415 4.46195 16.7415V13.747C4.24436 13.747 4.05312 13.7509 3.86187 13.747C3.33595 13.7352 3.0159 13.4601 3.00712 13.0161C2.99834 12.5673 3.31058 12.2785 3.83162 12.257C3.94481 12.2521 4.05897 12.255 4.17313 12.255C9.39237 12.255 14.6106 12.255 19.8299 12.255C19.9762 12.255 20.1236 12.2492 20.269 12.2629C20.6924 12.3019 20.9695 12.5907 20.9754 12.9869C20.9813 13.4015 20.6895 13.7128 20.2475 13.7421C20.0104 13.7577 19.7713 13.745 19.5147 13.745V16.7532L19.5128 16.7522ZM6.03485 13.7684V21.2114H17.9467V13.7684H6.03485ZM17.9477 1.78241H6.0329V4.72915H17.9477V1.78241Z" fill="white"/>
<path id="Vector_2" d="M19.4728 7.7663C19.748 7.7663 20.0251 7.74483 20.2983 7.77118C20.7071 7.81021 20.9423 8.05512 20.9715 8.46786C20.9989 8.86011 20.7266 9.21333 20.3207 9.23674C19.7558 9.26992 19.185 9.2787 18.6229 9.22991C18.2248 9.19479 17.9867 8.89816 17.9965 8.48933C18.0063 8.08537 18.2317 7.81606 18.6483 7.77508C18.9205 7.74776 19.1976 7.7702 19.4728 7.7702C19.4728 7.7702 19.4728 7.76825 19.4728 7.76728V7.7663Z" fill="white"/>
<path id="Vector_3" d="M12.0405 15.2388C12.9499 15.2388 13.8602 15.2349 14.7696 15.2408C15.4009 15.2447 15.7405 15.5296 15.7259 16.0223C15.7112 16.4897 15.3746 16.7532 14.7687 16.7542C12.9167 16.7571 11.0647 16.7571 9.21278 16.7542C8.60782 16.7532 8.27022 16.4868 8.25656 16.0204C8.24192 15.5286 8.58343 15.2437 9.21473 15.2408C10.1573 15.2349 11.0989 15.2398 12.0415 15.2398L12.0405 15.2388Z" fill="white"/>
<path id="Vector_4" d="M11.9698 19.7385C11.0438 19.7385 10.1188 19.7424 9.19282 19.7365C8.5781 19.7326 8.25708 19.4711 8.25611 18.993C8.25513 18.5178 8.59079 18.2388 9.18696 18.2378C11.0545 18.2349 12.9221 18.2349 14.7897 18.2378C15.3888 18.2378 15.7244 18.512 15.7264 18.9862C15.7283 19.4653 15.4073 19.7326 14.7965 19.7365C13.8549 19.7424 12.9123 19.7385 11.9708 19.7385H11.9698Z" fill="white"/>
</g>
</svg>
