<svg width="141" height="104" viewBox="0 0 141 104" fill="none" xmlns="http://www.w3.org/2000/svg">
<path d="M98.1919 22.6316C98.1919 24.0012 97.1056 25.1072 95.7602 25.1072C94.4148 25.1072 93.3284 24.0012 93.3284 22.6316C93.3284 21.262 94.4148 20.156 95.7602 20.156C97.1056 20.1487 98.1919 21.262 98.1919 22.6316Z" fill="white"/>
<path d="M91.9468 17.1679C93.0157 17.1679 93.8822 16.2858 93.8822 15.1977C93.8822 14.1096 93.0157 13.2275 91.9468 13.2275C90.878 13.2275 90.0115 14.1096 90.0115 15.1977C90.0115 16.2858 90.878 17.1679 91.9468 17.1679Z" fill="white"/>
<path d="M86.2416 12.8759C87.0839 12.8759 87.7668 12.1808 87.7668 11.3232C87.7668 10.4657 87.0839 9.77051 86.2416 9.77051C85.3992 9.77051 84.7163 10.4657 84.7163 11.3232C84.7163 12.1808 85.3992 12.8759 86.2416 12.8759Z" fill="white"/>
<path d="M82.6802 8.81078C82.6802 9.53586 82.1046 10.1218 81.3923 10.1218C80.6801 10.1218 80.1045 9.53586 80.1045 8.81078C80.1045 8.08569 80.6801 7.49976 81.3923 7.49976C82.0974 7.49976 82.6802 8.09301 82.6802 8.81078Z" fill="white"/>
<path d="M76.5429 8.81076C77.135 8.81076 77.6149 8.32217 77.6149 7.71947C77.6149 7.11676 77.135 6.62817 76.5429 6.62817C75.9509 6.62817 75.4709 7.11676 75.4709 7.71947C75.4709 8.32217 75.9509 8.81076 76.5429 8.81076Z" fill="white"/>
<path d="M70.3124 37.4995C57.7505 32.0504 46.5916 34.1451 40.9294 35.9395C41.9799 37.2285 43.1958 38.4443 44.5627 39.5722C51.0667 38.2246 60.6428 37.7925 71.298 42.414C76.3055 44.582 81.0899 45.5561 85.3995 45.8271C89.3062 44.5453 92.81 42.7582 95.7526 40.5903C93.5007 40.9858 90.9466 41.2568 88.1335 41.2568C82.8958 41.2495 76.8019 40.312 70.3124 37.4995Z" fill="white"/>
<path d="M70.3126 30.2269C54.0814 23.1884 40.1814 28.7401 37.4834 29.9632C37.9582 31.2669 38.5842 32.5267 39.3468 33.7351C45.0809 31.7356 57.2471 29.0477 71.2982 35.1414C83.2413 40.3195 93.8894 38.7009 99.7746 36.987C101.429 35.178 102.753 33.2078 103.667 31.1131C100.818 32.241 95.2636 33.9768 88.1337 33.9768C82.896 33.9842 76.8021 33.0393 70.3126 30.2269Z" fill="white"/>
<path d="M70.3126 44.7651C61.5639 40.9712 53.4987 40.8393 47.4912 41.7109C53.621 45.6732 61.8086 48.0975 70.809 48.0975C73.4926 48.0975 76.0971 47.8778 78.6008 47.4677C75.9388 46.8744 73.1689 46.0028 70.3126 44.7651Z" fill="white"/>
<path d="M39.5986 24.0451C39.5986 18.7132 42.6851 13.6156 48.2969 9.68982C54.2685 5.51507 62.2617 3.21529 70.809 3.21529C79.3562 3.21529 87.3567 5.51507 93.321 9.68982C98.9328 13.6156 102.019 18.7132 102.019 24.0451C102.019 25.7223 101.71 27.3849 101.113 28.9889L104.681 28.11C105.005 26.7917 105.178 25.4367 105.178 24.0524C105.178 10.7665 89.7884 0 70.8018 0C51.8151 0 36.4258 10.7665 36.4258 24.0524C36.4258 25.0339 36.5193 26.0007 36.6848 26.9455L39.7281 25.9567C39.6418 25.3195 39.5986 24.6823 39.5986 24.0451Z" fill="white"/>
<path fill-rule="evenodd" clip-rule="evenodd" d="M131.251 75.4606C131.158 75.4679 131.071 75.4533 130.978 75.4167C130.805 75.3434 130.69 75.1823 130.589 75.0212C129.453 73.2121 129.697 70.7805 130.079 68.7737C130.366 67.2429 130.719 65.7415 130.942 64.1961C131.043 63.5003 131.079 62.7606 130.302 62.5042C128.949 62.0574 127.301 63.0316 125.992 63.2879C124.56 63.5662 123.208 64.2254 121.805 64.6355C120.495 65.0164 119.114 65.2434 117.776 64.9944C116.992 64.8479 116.207 64.511 115.718 63.8738C115.229 63.2366 115.143 62.2406 115.668 61.6327C115.992 61.2591 116.474 61.0907 116.934 60.9295C119.013 60.2191 121.092 59.5087 123.237 59.0472C124.639 58.7469 126.071 58.5492 127.503 58.5419C129.086 58.5272 130.604 58.6224 132.057 59.3329C133.381 59.9701 134.525 61.0394 135.165 62.3797C135.87 63.8519 135.942 65.573 135.633 67.177C135.324 68.781 134.662 70.2898 133.935 71.7473C133.403 72.8166 132.827 73.8786 132.115 74.8381C131.892 75.1237 131.575 75.4313 131.251 75.4606Z" fill="white"/>
<path fill-rule="evenodd" clip-rule="evenodd" d="M33.4327 89.4934C36.217 88.3362 39.8215 89.4495 41.7137 91.7859C42.2749 92.4817 42.6634 93.3679 42.6346 94.2687C42.6058 95.1257 42.2173 95.924 41.7856 96.6564C40.9223 98.1066 39.8359 99.3956 38.7999 100.714C37.8718 101.879 36.6559 102.897 35.3177 103.534C34.6342 103.856 33.8715 104.09 33.1233 103.966C32.4254 103.849 31.8067 103.439 31.2743 102.962C30.5908 102.347 30.0008 101.593 29.7202 100.707C29.4324 99.7911 29.49 98.7877 29.7274 97.8576C30.08 96.4733 30.7347 95.0744 31.5045 93.8879C33.2528 91.178 31.67 90.2258 33.4327 89.4934ZM39.7496 94.1955C39.692 93.778 39.4834 93.3972 39.2028 93.0822C38.9294 92.7673 38.5912 92.5183 38.2459 92.2839C38.1667 92.2326 38.0732 92.174 37.9797 92.1887C37.9077 92.196 37.8502 92.2473 37.7926 92.2985C37.0084 92.987 36.5839 93.9685 36.2314 94.9352C35.8716 95.9093 35.6342 96.9274 35.3464 97.9308C35.2169 98.3849 35.0802 98.8317 34.9148 99.2711C34.9723 99.1173 35.4256 98.8976 35.5623 98.8024C35.8213 98.6266 36.0803 98.4581 36.3465 98.2897C36.8717 97.9528 37.4041 97.6159 37.8933 97.2277C38.5121 96.737 39.1308 96.173 39.4977 95.4626C39.692 95.0744 39.7999 94.6423 39.7496 94.1955Z" fill="white"/>
<path fill-rule="evenodd" clip-rule="evenodd" d="M91.58 67.6016C90.0475 67.2134 88.5079 66.8692 86.9898 66.4444C85.4286 66.0123 83.7162 65.5728 82.4284 64.5182C82.2773 64.3937 82.1262 64.2545 82.0399 64.0787C81.9464 63.881 81.9392 63.6539 81.9751 63.4342C82.1046 62.7897 82.6658 62.3063 83.2702 62.0866C83.8817 61.8668 84.5436 61.8742 85.1911 61.8742C88.6302 61.8815 92.1196 61.7716 95.4291 60.8122C98.0696 60.0505 101.005 58.549 103.782 59.5671C104.106 59.6842 104.451 59.8747 104.545 60.2189C104.609 60.4606 104.53 60.7169 104.444 60.944C103.84 62.4967 102.724 63.837 101.322 64.7086C99.9474 65.5582 98.0695 65.6095 96.9544 66.8839C95.9399 68.0411 95.7169 74.4204 95.7097 76.1562C95.6953 79.2763 92.1412 79.1445 91.0404 77.1889C89.5655 74.5888 91.0836 70.2896 91.58 67.6016Z" fill="white"/>
<path fill-rule="evenodd" clip-rule="evenodd" d="M99.9833 79.0855C101.429 77.7965 109.142 79.1075 104.732 79.7227C101.214 80.2061 96.94 84.5127 94.0693 84.1611C93.134 84.0439 91.9757 81.898 93.134 81.312C93.8103 80.9678 95.1125 81.4659 95.7817 80.9165C99.3286 78.0235 99.7531 70.985 102.163 67.4475C102.912 66.3488 105.444 68.4069 105.509 69.1906C105.638 70.6481 104.25 73.109 103.876 73.7828C102.825 75.6578 101.307 77.1739 99.9833 79.0855Z" fill="white"/>
<path fill-rule="evenodd" clip-rule="evenodd" d="M63.0172 75.4973C64.9597 75.2702 68.6002 75.5339 67.9311 78.5954C67.6721 79.7819 65.5713 82.7408 65.9238 83.4586C66.1756 83.964 66.9239 83.7223 67.3268 83.5904C68.0031 83.3634 68.5786 83.129 69.3125 83.2462C69.7442 83.3121 70.1759 83.4952 70.4349 83.8541C70.809 84.3741 70.7083 85.0992 70.5428 85.7218C70.0679 87.5089 69.2118 89.208 67.9959 90.585C66.3627 92.4307 63.4273 94.4375 60.9523 93.1118C60.2904 92.7602 59.8659 91.9107 59.8444 91.0025C59.7724 88.1753 61.9884 85.6119 63.1683 83.1876C63.5928 82.3087 65.7224 78.7052 65.2403 77.9728C64.9022 77.4601 63.7439 78.0168 63.4417 78.112C59.3335 79.3937 55.2254 80.8366 52.1677 83.1803C51.5993 83.6124 51.182 84.3521 50.5777 84.4474C49.2107 84.6671 46.7645 83.5099 47.3976 81.7008C47.6494 80.9757 50.3834 79.7892 51.1316 79.445C52.1101 78.9982 53.3476 78.405 54.9376 77.8263C57.6068 76.8596 58.5277 76.9182 59.017 73.886C59.3191 72.033 59.758 69.6746 59.9882 67.6898C60.2616 65.3021 60.4991 62.3138 61.5135 59.5893C62.233 57.6557 64.9454 59.1059 65.9382 60.1532C69.5212 63.9471 65.9814 73.9299 63.0172 75.4973ZM62.6719 90.6436C63.5424 91.0903 67.6362 87.2598 67.4491 86.3443C67.3556 85.8975 65.449 84.5353 65.3051 84.5865C64.6144 84.7989 61.8589 90.2261 62.6719 90.6436Z" fill="white"/>
<path fill-rule="evenodd" clip-rule="evenodd" d="M77.7951 97.9675C77.9893 95.5506 78.2915 93.1336 78.7016 90.7459C78.8959 89.6034 79.1117 88.4681 79.3347 87.3329C79.4426 86.7763 79.5578 86.227 79.6729 85.6703C79.7304 85.392 79.7808 84.4472 79.9822 84.2641C79.1693 85.0111 76.8814 86.9813 75.8453 87.4428C75.7518 87.4867 75.6655 88.5414 75.6367 88.6659C75.5144 89.2958 75.3705 89.911 75.2266 90.5335C74.91 91.9178 74.5359 93.2654 73.9891 94.5691C73.9028 94.7669 73.7661 95.0013 73.5502 94.9866C73.3704 94.972 73.2625 94.7815 73.2049 94.6058C72.9531 93.9246 72.8883 93.1922 72.8452 92.4671C72.5286 87.0985 73.1905 81.7226 73.9531 76.398C74.1906 74.7574 74.4352 73.1094 74.8741 71.5128C74.982 71.1173 75.1618 70.6632 75.5575 70.5606C75.9245 70.4654 76.2842 70.7291 76.536 71.0147C78.0325 72.6846 77.5936 74.9551 77.3778 76.9986C77.1907 78.8003 76.8382 80.6606 76.8814 82.477C76.8814 82.455 78.0397 82.0376 78.1692 81.979C78.5937 81.7812 78.9894 81.5249 79.3491 81.2246C80.0758 80.6167 80.6513 79.8257 81.0542 78.9614C81.8025 77.3648 81.7953 75.7022 82.0975 74.0103C82.3637 72.5162 82.8169 71.066 83.6371 69.777C83.8314 69.4694 84.1336 69.1471 84.4861 69.2057C84.8674 69.2716 85.0185 69.733 85.0832 70.1212C85.2056 70.8756 85.2559 71.6373 85.2631 72.4063C85.3279 79.0713 82.4572 85.3481 80.7305 91.7787C80.1981 93.7562 79.7736 95.763 79.198 97.7258C79.0757 98.136 78.9246 98.5828 78.5721 98.8171C78.4282 98.9123 78.2411 98.9709 78.0829 98.905C77.7807 98.7878 77.7519 98.3704 77.7807 98.0408C77.7879 98.0261 77.7879 97.9968 77.7951 97.9675Z" fill="white"/>
<path fill-rule="evenodd" clip-rule="evenodd" d="M40.2965 74.6402C38.6777 74.9698 37.2244 78.002 35.4689 78.0825C34.7782 78.1118 32.9724 76.5664 33.1379 75.9512C33.3465 75.1749 36.8719 74.0469 37.8072 73.4903C40.7858 71.7105 42.4477 64.9577 42.642 61.5813C42.6708 61.0906 42.6636 60.5998 42.678 60.1091C42.6851 59.9187 42.6923 59.7209 42.7859 59.5598C42.9154 59.3401 43.1744 59.2302 43.4262 59.2302C43.678 59.2302 43.9154 59.3328 44.1385 59.45C45.7213 60.2849 46.4983 62.1086 46.2465 63.8591C45.9443 65.9757 45.2968 71.6519 45.0162 73.7759C44.455 78.0166 43.8075 82.2793 42.7139 86.4174C42.642 86.6957 42.5628 86.9813 42.4837 87.2597C42.4405 87.3988 41.5484 89.369 40.6347 88.9808C40.2677 88.827 40.1095 86.6884 40.0735 86.1977C39.7569 82.4917 40.1526 78.0093 40.2965 74.6402Z" fill="white"/>
<path fill-rule="evenodd" clip-rule="evenodd" d="M98.4797 90.1088C98.2855 90.3724 98.084 90.6288 97.8826 90.8778C97.53 91.3172 97.1703 91.742 96.8106 92.1742C96.53 92.5111 96.3357 92.9579 95.8537 93.0311C99.5373 92.4964 103.329 92.1742 107.041 92.6063C108.322 92.7601 109.567 93.075 110.826 93.368C111.207 93.4559 111.66 93.617 111.732 94.0052C111.804 94.3787 111.452 94.7156 111.085 94.7816C110.718 94.8475 110.351 94.7156 109.991 94.6131C108.25 94.1224 106.394 94.2908 104.617 94.6204C102.559 95.0013 100.537 95.6019 98.5589 96.283C96.6595 96.9422 94.6953 97.5721 92.9039 98.4656C92.5657 98.6341 92.2204 98.7952 91.8534 98.9124C91.3858 99.0588 90.875 99.1248 90.4073 98.971C89.9541 98.8172 89.5871 98.4729 89.2418 98.1287C88.3928 97.2718 87.5798 96.3416 87.141 95.2137C87.0402 94.9573 86.9611 94.6864 86.9899 94.408C87.0114 94.137 87.1625 93.8587 87.4072 93.7489C87.5726 93.6756 87.7525 93.6829 87.9324 93.6976C88.6231 93.7562 89.2058 94.1077 89.8677 94.2103C90.3426 94.2835 90.8462 94.2396 91.3282 94.1956C92.2707 94.1077 93.3571 93.9906 94.2205 93.5658C95.091 93.1336 95.3285 91.6615 95.5083 90.8119C95.7817 89.5155 95.9904 88.2118 96.3429 86.9301C96.7026 85.6044 97.1199 84.2934 97.4509 82.9604C97.5516 82.5576 97.6451 82.1474 97.8394 81.7886C98.0337 81.4224 98.3502 81.1074 98.7459 81.0049C99.1992 80.895 99.6884 81.0928 100.012 81.4224C100.343 81.7593 100.53 82.206 100.66 82.6601C101.156 84.4765 100.667 86.4467 99.7819 88.102C99.4078 88.8124 98.9618 89.4716 98.4797 90.1088Z" fill="white"/>
<path fill-rule="evenodd" clip-rule="evenodd" d="M128.611 102.011C128.553 101.967 128.496 101.915 128.445 101.864C127.402 100.817 126.834 99.3666 126.611 97.8944C125.956 93.5365 127.467 89.0542 128.51 84.8868C128.51 84.8941 125.272 85.231 124.898 85.3042C123.603 85.5606 122.315 85.9048 121.035 86.2271C118.495 86.8789 115.912 87.5234 113.272 87.4941C112.38 87.4795 111.473 87.3916 110.639 87.0547C109.804 86.7178 109.048 86.1245 108.66 85.3042C108.401 84.7622 108.336 84.0518 108.732 83.605C109.178 83.0997 109.955 83.1656 110.617 83.2095C112.833 83.3487 115.02 82.814 117.193 82.3306C123.035 81.0269 128.949 80.0602 134.892 79.4303C136.769 79.2325 138.654 79.0714 140.532 79.1373C140.719 79.1446 140.95 79.1886 140.993 79.3717C141.029 79.5108 140.928 79.6427 140.827 79.7525C140.295 80.3238 139.568 80.8731 138.834 81.1514C137.582 81.6348 131.697 82.0157 132.525 84.3594C132.618 84.6231 132.798 84.8501 132.892 85.1138C133.028 85.4873 132.978 85.9048 132.913 86.3003C132.395 89.2959 130.827 92.0278 130.381 95.0307C130.071 97.0961 130.309 99.2201 129.877 101.264C129.791 101.688 129.575 102.194 129.15 102.23C128.963 102.245 128.776 102.142 128.611 102.011Z" fill="white"/>
<path fill-rule="evenodd" clip-rule="evenodd" d="M16.9787 64.0056C17.7917 63.361 19.504 64.2912 20.3674 64.467C22.3891 64.8844 24.2237 63.8591 26.0799 63.2219C26.9577 62.9143 27.893 62.7019 28.8211 62.8044C29.1592 62.841 29.5478 62.9655 29.6701 63.2878C29.7348 63.4636 29.7132 63.6613 29.6629 63.8444C29.5118 64.4011 29.1808 64.8844 28.9794 65.4264C28.7851 65.9318 28.7132 66.4738 28.5765 67.0011C28.3031 68.0778 27.7563 69.1032 26.9361 69.8429C26.1159 70.5826 25.0151 71.0221 23.9215 70.9342C22.7704 70.839 21.7344 70.1944 20.7415 69.5939C19.6839 68.9567 18.5975 68.3341 17.7126 67.4699C17.3241 67.0963 16.9787 66.6642 16.7557 66.1735C16.5398 65.6755 16.4607 65.1042 16.619 64.5842C16.7053 64.3058 16.8276 64.1301 16.9787 64.0056Z" fill="white"/>
<path fill-rule="evenodd" clip-rule="evenodd" d="M30.0369 79.0423C32.4687 78.6761 35.0731 80.0311 37.0301 80.7781C38.1668 81.2103 38.1021 82.4407 36.7567 82.4627C34.8213 82.4993 32.3032 82.0452 30.447 81.6644C29.5476 81.4813 28.6843 81.5325 28.1591 82.3821C27.9289 82.7483 27.7418 83.1658 27.5691 83.5613C27.2957 84.1912 26.8712 84.7698 26.5331 85.3777C25.9072 86.491 25.3676 87.6701 25.1229 88.9299C25.051 89.2961 25.0078 89.6696 24.8783 90.0139C24.7488 90.3581 24.5186 90.6877 24.1804 90.8415C23.8423 90.988 23.461 90.9001 23.2236 90.6218C22.9645 90.3288 22.9574 89.8894 22.9574 89.5085C22.9645 88.864 23.0941 88.1755 23.2092 87.5456C23.4682 86.1467 23.9358 84.7991 24.4035 83.4661C24.756 82.4627 25.1157 81.4666 25.4035 80.4412C25.5474 79.9285 25.6697 79.4159 25.7633 78.8885C25.8064 78.6248 25.828 78.3612 25.8784 78.0975C25.9 77.9657 26.0439 77.6581 25.9287 77.5482C25.7848 77.4017 24.8423 77.9144 24.5042 78.0609C23.7272 78.3905 23.0005 78.9764 21.9717 79.0936C19.9284 79.328 17.9139 78.9032 17.5542 77.2186C17.3599 76.3104 17.6693 74.9335 18.7485 74.9701C19.1874 74.9848 19.4104 75.6146 20.1299 75.622C21.4537 75.6439 23.461 74.5819 24.7344 74.0253C25.8568 73.5419 27.0151 72.4286 28.0943 72.2455C32.2312 71.5497 31.5909 76.3177 30.0369 79.0423Z" fill="white"/>
<path d="M4.2153 85.3846C4.78367 85.4871 5.35205 85.6482 5.92762 85.6482C6.88451 85.6482 7.85579 85.575 8.81267 85.4871C9.84151 85.3992 11.2804 85.6043 11.9999 84.7254C12.3452 84.3006 12.4028 83.7366 12.4316 83.2093C12.5179 81.7811 12.5539 80.3529 12.5827 78.932C12.669 74.9404 12.7625 70.9341 12.5179 66.9497C12.4532 65.9024 12.3165 64.7525 11.4819 64.0494C10.6905 63.3829 9.53214 63.3316 8.46733 63.317C6.74781 63.295 5.02829 63.273 3.30877 63.2437C2.90587 63.2364 2.47419 63.2364 2.11446 63.4122C1.43097 63.7418 1.22232 64.5474 1.11441 65.2505C0.430914 69.6011 0.574807 74.0248 0.725895 78.4266C0.776257 79.8622 0.826619 81.2904 1.01368 82.7186C1.1216 83.5389 1.33744 84.4398 2.0641 84.9012C2.45261 85.1502 2.92746 85.2234 3.38791 85.304C3.6757 85.2967 3.94909 85.3333 4.2153 85.3846Z" fill="#B01F24"/>
<path d="M3.38807 66.3347C3.50318 66.1077 3.66866 65.9026 3.87011 65.7195C4.07156 65.5437 4.31618 65.4119 4.60396 65.3093C4.88456 65.2068 5.18673 65.1555 5.50329 65.1555C5.81266 65.1555 6.11484 65.2068 6.39543 65.3093C6.67602 65.4119 6.92064 65.5437 7.12928 65.7195C7.33073 65.9026 7.49621 66.1077 7.61852 66.3347C7.74083 66.5618 7.80558 66.8108 7.80558 67.0818C7.80558 67.3088 7.76241 67.5285 7.67608 67.7263C7.58974 67.924 7.46743 68.1071 7.32354 68.2683C7.16526 68.4367 6.98539 68.5759 6.77675 68.6857C6.5681 68.8029 6.34507 68.8835 6.10045 68.9348V69.7477H6.5753C6.87028 69.7477 7.14367 69.7404 7.39549 69.7184C7.6473 69.6965 7.86314 69.6672 8.0502 69.6306C8.26604 69.5939 8.46749 69.55 8.65455 69.4914V65.0969H9.72655V67.3967H10.8273V67.7409C10.8273 68.0412 10.5827 68.2902 10.2877 68.2902H9.72655V71.2565C9.72655 71.5129 9.68338 71.7179 9.58985 71.8571C9.49632 71.9963 9.3956 72.0988 9.28048 72.1647C9.15817 72.2453 9.02148 72.2892 8.856 72.2965H8.65455L8.64735 70.2897C8.49627 70.3556 8.25165 70.4289 7.90631 70.5168C7.56096 70.6047 7.11489 70.6486 6.58249 70.6486H2.45996V69.7551H5.02845V68.9567C4.76225 68.9128 4.51763 68.8322 4.2946 68.7224C4.07876 68.6052 3.8845 68.466 3.71902 68.3049C3.55355 68.1438 3.43124 67.968 3.3449 67.7629C3.25857 67.5578 3.2154 67.3381 3.2154 67.0964C3.2154 66.8181 3.27296 66.5691 3.38807 66.3347ZM9.77691 73.4391C9.77691 73.6588 9.64741 73.8639 9.44596 73.9445C8.9927 74.1349 8.55382 74.2741 8.12934 74.3766C7.60413 74.5011 7.12209 74.5597 6.68322 74.5524C6.4314 74.5524 6.14362 74.5304 5.81986 74.4791C5.4961 74.4279 5.20112 74.3473 4.92772 74.2301C4.64713 74.1129 4.40971 73.9591 4.22265 73.7687C4.03559 73.5783 3.94206 73.3439 3.94206 73.0583V71.3884H4.56799C4.86297 71.3884 5.01406 71.5934 5.01406 72.0109V72.736C5.01406 72.8898 5.05723 73.0143 5.14356 73.1168C5.2299 73.2194 5.34501 73.3073 5.4961 73.3805C5.64719 73.4538 5.81986 73.505 6.0285 73.5416C6.22995 73.5783 6.46018 73.5929 6.7048 73.5929C7.10051 73.6076 7.56816 73.5636 8.10056 73.4611C8.63297 73.3585 9.19415 73.1974 9.7913 72.9777V73.4391H9.77691ZM4.38093 67.5139C4.44568 67.653 4.53202 67.7702 4.64713 67.8728C4.75505 67.9753 4.87736 68.0559 5.02845 68.1071C5.17954 68.1657 5.33782 68.195 5.51768 68.195C5.69036 68.195 5.84864 68.1657 5.99253 68.1071C6.14362 68.0485 6.27312 67.968 6.38824 67.8728C6.49616 67.7702 6.58249 67.653 6.64724 67.5139C6.712 67.3747 6.74797 67.2356 6.74797 67.0818C6.74797 66.9206 6.712 66.7741 6.64724 66.6423C6.58249 66.5032 6.49616 66.386 6.38824 66.2834C6.27312 66.1809 6.14362 66.1003 5.99253 66.0417C5.84144 65.9831 5.68316 65.9465 5.51768 65.9465C5.33782 65.9465 5.17954 65.9758 5.02845 66.0417C4.87736 66.1003 4.75505 66.1809 4.64713 66.2834C4.53202 66.386 4.44568 66.5032 4.38093 66.6423C4.31618 66.7815 4.2874 66.928 4.2874 67.0818C4.28021 67.2356 4.31618 67.3747 4.38093 67.5139Z" fill="white"/>
<path d="M10.669 82.2573V82.6161C10.669 82.9237 10.4244 83.1654 10.1294 83.1654H2.61816V82.2573H6.10757V80.5874C5.791 80.58 5.48163 80.5434 5.19385 80.4775C4.89887 80.4116 4.63986 80.3017 4.41683 80.1625C4.19379 80.0234 4.00673 79.8403 3.87723 79.6132C3.74053 79.3862 3.67578 79.0932 3.67578 78.749V76.2881H9.60416V76.647C9.60416 76.9546 9.35955 77.1963 9.06456 77.1963H4.74778V78.5586C4.74778 79.2104 5.33774 79.54 6.51047 79.54C7.57527 79.54 8.68325 79.3569 9.82 78.9907V79.4594C9.82 79.6938 9.67611 79.8989 9.45307 79.9794C9.12212 80.0966 8.79836 80.2065 8.4746 80.2944C8.04292 80.4189 7.60405 80.4995 7.17237 80.5434V82.2719H10.669V82.2573Z" fill="white"/>
</svg>
