<svg width="24" height="24" viewBox="0 0 24 24" fill="none" xmlns="http://www.w3.org/2000/svg">
<path id="icon_phone" d="M17.487 18.6364C16.5702 19.5298 15.481 19.4501 14.3608 19.0751C11.7023 18.1874 9.60445 16.4945 7.78027 14.4322C6.46604 12.9464 5.41054 11.3032 4.83685 9.37401C4.46658 8.13008 4.655 7.07176 5.66082 6.19155C6.06015 5.84284 6.4098 5.43788 6.7932 5.07136C7.395 4.49674 8.16367 4.4883 8.75798 5.06855C9.6082 5.89721 10.4472 6.73805 11.2777 7.58639C11.8786 8.20133 11.8692 8.95968 11.2599 9.58211C10.9121 9.93738 10.539 10.2683 10.0853 10.6976C11.1699 11.7831 12.1992 12.8143 13.2969 13.9129C13.7196 13.4611 14.0477 13.088 14.4002 12.7393C15.0357 12.1112 15.7913 12.1103 16.4287 12.7364C17.2199 13.5135 18.0007 14.3019 18.7834 15.0874C19.5455 15.8524 19.5483 16.5357 18.7975 17.3231C18.745 17.3784 18.6963 17.4375 18.5772 17.5715C18.8865 17.8603 19.2015 18.134 19.494 18.4302C20.4801 19.4285 20.3864 20.6799 19.2681 21.5358C12.1223 27.0121 1.65814 22.8669 0.167681 13.971C-0.975005 7.14957 3.85071 0.801523 10.7368 0.0684789C17.3192 -0.632693 23.2145 4.13022 23.9222 10.7089C24.1481 12.8068 23.8341 14.8156 23.013 16.7513C22.7467 17.3784 22.3765 17.5987 21.919 17.4112C21.5816 17.2725 21.3294 16.8394 21.6153 16.1729C24.3441 9.82396 20.4061 2.70444 13.5846 1.61143C7.78027 0.681536 2.2112 4.93169 1.57752 10.7754C0.96353 16.441 4.77592 21.4824 10.4022 22.3654C13.2987 22.82 15.9506 22.132 18.311 20.3762C18.7712 20.0341 18.7797 19.8513 18.3775 19.4416C18.1254 19.1857 17.8685 18.9345 17.6117 18.6833C17.592 18.6636 17.5564 18.6617 17.487 18.6364ZM15.3329 13.8688C14.986 14.2344 14.6195 14.6394 14.2324 15.0237C13.7065 15.5458 13.2022 15.5833 12.6013 15.1371C11.1755 14.0779 9.92785 12.8368 8.86859 11.41C8.39521 10.7726 8.43739 10.2795 9.01389 9.71147C9.38885 9.3412 9.78724 8.9953 10.2156 8.60066C9.74224 8.14508 9.34198 7.77387 8.95764 7.38673C8.57519 7.0024 8.2096 6.60119 7.76715 6.13531C7.58905 6.34997 7.48125 6.5037 7.35095 6.634C5.88955 8.10009 5.84643 8.25851 6.72664 10.1577C7.78121 12.4318 9.41134 14.241 11.3752 15.7642C12.5441 16.6698 13.8012 17.4262 15.2607 17.7506C15.5935 17.8246 16.0631 17.8049 16.3125 17.6184C16.8393 17.2238 17.262 16.6904 17.7045 16.2376C16.9218 15.4558 16.1522 14.6872 15.3329 13.8688Z" fill="white"/>
</svg>
