<?xml version="1.0" encoding="utf-8"?>
<!-- Generator: Adobe Illustrator 27.8.1, SVG Export Plug-In . SVG Version: 6.00 Build 0)  -->
<svg version="1.1" id="레이어_1" xmlns="http://www.w3.org/2000/svg" xmlns:xlink="http://www.w3.org/1999/xlink" x="0px"
	 y="0px" viewBox="0 0 200 200" style="enable-background:new 0 0 200 200;" xml:space="preserve">
<style type="text/css">
	.st0{fill:#FFFFFF;}
	.st1{fill:#00A63C;}
</style>
<g>
	<rect x="16.82" y="25.24" class="st0" width="169.58" height="131.39"/>
	<rect x="11.59" y="17.38" class="st0" width="174.81" height="139.72"/>
	<g>
		<path class="st1" d="M194,16.52c-0.5-2.92-3.31-5.38-6.51-5.68l-0.82,0.08l-2.02-0.39l-1.57,0.5l-1.3-0.61l-2.78,0.71l-3.43-0.98
			l-1.95,1.1l-2.14-0.78l-1.92,0.55l-1.8-0.71l-2.09,0.63l-2.57-1.06l-1.22,1.05l-1.86-0.56l-1.91,0.39l-3.04-0.68l-5.17,1.31
			l-5.2-1.51l-5.35,1.23l-4.66-1.12l-4.49,0.03l-3.16,0.48l-3.87,0.05l-1.5,0.66l-1.3-0.42l-2.82-0.06l-3.1-0.84l-3.14,0.86
			l-4.19-0.28l-4.34-0.58l-4.61,0.86l-4.74-0.88l-4.19,1.01l-4.65-0.99l-4.65,0.83l-4.65,0.25L69.6,9.84l-4.77,1.11l-3.7-1.01
			l-3.82,0.8l-2.52-0.9l-2.54,0.89l-2.8-0.89l-3.64,0.79l-2.67-0.8l-2.54,0.62l-2.29-0.55l-1.28,0.67l-1.19-0.73l-1.27,0.8
			l-1.25-0.79l-2.29,0.53l-2.12,0.48l-2.01-0.63l-2.94-0.11l-3.73,0.88l-2.4-0.74l-4.14,0.4l-1.2-0.02
			c-2.87,0.22-5.33,2.46-6.04,5.27L6.08,18.4l-0.29,5.16l0.41,2.99L5.5,29.52l0.87,6.09l0.16,3.96l0.11,1.62l-0.83,2.22l0.76,1.33
			l-0.2,1.12L6.11,48.2l-0.41,2.8l0.73,1.63L5.39,54.2l0.51,1.52l-0.1,5.39l-0.11,1.55l0.85,1.24l-1.07,4.94l1.32,5.17l-1.06,2.11
			l0.67,4.82l-1,5.28L5.2,90.74l0.54,4.14l0.75,1.31l-0.52,2.27l0.43,3.24l-0.28,6.72l0.54,3.96l-0.99,2.75l0.39,1.64l-0.86,4
			l0.92,2.86l0.08,1.56l0.61,5.37l-0.2,0.4l-0.67,1.6l0.44,1.73l-1.02,1.66l0.33,1.47l0.34,2.33l-0.87,2.07l0.88,4.79l-0.5,5.13
			l0.78,1.12l-1.11,1.04l0.09,1.53l0.55,3.17l-0.52,1.94l0.04,4.22l0.73,1.07l-1,2.38l0.79,2.47l0.04,2.2L5,174.52l0.15,1.96
			l0.7,2.44l-0.61,1.8l0.29,3.01l0.09,0.62c0.77,2.87,3.41,5.12,6.43,5.25l1.85-0.02l3.19,0.43l2.66-1.13l2.79,1.3l4.7-1.3
			l3.51,1.23l6.33-1.64l4.68,1.38l6.42-0.67l3.41,0.1l1.24,0.52l3.75-0.73l1.98,0.78l1.89-1.39l0.94-0.37l1.4,0.6l1.13-0.33
			l1.37,0.66l1.24,0.5l2.49,0.1l1.87-0.63l1.15-0.54l1.02,0.75l1.05-0.47l1.93,0.14l2.29-0.16l1.42,0.18l4.82,0.95l4.65-1.43
			l4.65,1.43l3.95-1.24l4.65,1.24l3.63-0.97l1.76-0.31l1.17,0.75l1.72-0.6l2.69-0.01l2.96,1.13l2.67-0.41l1.4-0.68l1.82,0.67
			l5.73,0.09l5.31-1.18l4.65,0.35l4.65,1.17l4.65-1.74l3.37,0.96l6.22,0.78l5.01-1.32l4.52,1.32l4.18-1.37l3.68,1.36l2.92-0.82
			l2.77,0.5l2.12-0.26l1.13,0.31l1.22-0.45l0.89,0.53l1.22-0.12l1.14,0.05v-0.01c5.34,0.05,6.83-4.02,7-6.96h0.01l0.03-2.55
			l0.3-8.14l-0.75-3.85l0.75-3.49l-0.82-2.57l-0.12-2.13l0.58-4.41l-0.77-2.34l0.29-4.25l0.48-3.83l-1.38-1.84l0.61-2.24l0.77-3.34
			l-1.03-4.94l1.03-4.62l-0.71-3.61l0.71-4.58l-0.54-3.37l0.54-7.4l-0.47-2.68l-0.66-2.08l1.13-4.15L194,95.7l0.64-4.98l-0.91-4.03
			l0.91-4.84l-0.71-2.23l0.69-4.69l-0.94-1.81l0.96-4.77l-0.34-4.7l-0.11-2.46l0.45-1.98l-0.9-1.56l0.9-2.38l-0.83-0.77l0.83-1.39
			l-0.93-2.67l0.93-2.65l-0.29-5.38l-0.47-1.85l0.45-1.88l-0.38-2.48l0.63-4.21l0.41-5.74l-0.93-6.93l-0.05-2.79L194,16.52z
			 M177.69,35.32l-0.49,2.3l-1.47,3.57l1.26,3.97l-0.12,3.4l-0.92,2.51l0.8,1.59l0.33,1.75l-0.71,2.79l0.6,2.81l-0.17,1.41
			l0.47,1.39l-0.88,3.92l0.54,3.67l-0.35,4.71l-0.94,3.03l1.22,4.17l-1.15,1.46l0.88,1.73l-0.82,3.3l0.33,5.74l0.48,5.94l0.14,7.84
			l-1.09,2.02l0.64,1.39l-0.54,1.98l0.96,2.21l-1,4.06l0.03,4.48l-0.31,4.63l1.35,5.27l-0.85,2.29l0.9,2.78l-1.05,1.92l0.78,1.47
			l-0.55,1.84l0.06,3.56l-0.18,1.7c-0.08,0.66,0.69,2.84-0.33,3.04c-0.24,0.05-0.48-0.19-0.65-0.37c-0.28-0.33-1.42-1.66-1.72-2.01
			c-4.34-5.1-11.7-10.36-19.62-13c-19.62-6.53-38.37-1.84-57,3.03c-22.98,6.01-47.3,5.12-64.73-12.96
			c-2.54-2.63-4.79-5.55-6.44-8.81c-0.24-0.49-0.43-0.97-0.6-1.49c-0.07-0.22-0.06-0.46-0.12-0.68c-0.09-0.31-0.21-0.56-0.18-0.89
			c0.02-0.28,0.14-0.52,0.19-0.79c0.1-0.48-0.05-1.03-0.1-1.53l0.01-1.31l0.09-2.23l-0.66-3.19l0.08-5.42l0.79-2.57l-0.85-1.95
			L23.6,95.8l0.23-3.28l0.18-3.93l0.08-3.97l0.64-3.86l-0.87-1.67l0.45-5.75l0.5-6.35l0.25-1.01l-0.32-1.81l0.01-1.91l-0.58-1.69
			l0.9-3.08l0.09-2.43l-0.93-2.97l0.76-0.8l-0.52-3.04l-0.12-5.09l-0.66-3.87c0.12-1.97,0.28-3.96,0.37-5.91
			c0.07-1.48,0.27-3.29,1.62-4.22c1.91-1.29,4.17-0.79,6.3-1.15c1.44-0.25,2.89-0.5,4.33-0.75l3.45,0.93l1.86,0.21l1.45,0.19
			l1.24-1.18l2.29,0.94l1.59-1.06l0.98,0.09l0.92,0.34l0.86,0.25l3.04,0.65l4.27-1.06l3.75,0.12l1.22-0.41l1.72,0.77l2.63,0.13
			l5.27-0.11l4.38,0.38l4.74-0.85l4.74,1.23l8.84-1.48l4.86-0.01l4.74,0.47l5.47-0.18l2.06-0.31l1.86,0.3l2.24-0.13l0.84-0.19
			l4.6,0.78l2.55,0.2l3.99-0.14l4.88,0.08l4.75-0.92l5.48,0.76l2.15,0.53l3.68-0.69l1.4,0.71l1.85-0.59l2.37,0.3l2.19,0.68
			l1.35-0.34l0.55-0.23l0.52,0.22l1.78,0.08l2.31,0.07l1.27-0.15l1.44-0.28l2.23-0.37c2.27,0.13,5.4-0.39,6.97,1.48
			c0.37,0.44,0.74,0.96,0.97,1.49c0.26,0.61,0.09,0.92,0.1,1.53C176.96,33.33,177.87,34.52,177.69,35.32z"/>
		<g>
			<path class="st0" d="M59.12,159.85h-9.1c-0.19,0-0.33,0.15-0.33,0.34v1.08c0,0.19,0.15,0.34,0.33,0.34h9.1
				c0.19,0,0.33-0.15,0.33-0.34v-1.08C59.45,160,59.3,159.85,59.12,159.85z"/>
			<path class="st0" d="M52.33,158.81h4.64c0.19,0,0.33-0.15,0.33-0.34v-1.04c0-0.18-0.15-0.34-0.33-0.34h-4.64
				c-0.19,0-0.33,0.15-0.33,0.34v1.04C52,158.66,52.15,158.81,52.33,158.81z"/>
			<path class="st0" d="M54.63,162.17c-1.21,0-2.19,0.4-2.92,1.19c-0.66,0.73-0.99,1.63-0.99,2.68c0,1.04,0.33,1.93,0.99,2.66
				c0.73,0.8,1.72,1.21,2.92,1.21c1.21,0,2.19-0.41,2.91-1.21c0.64-0.73,0.97-1.62,0.97-2.66c0-1.05-0.32-1.95-0.97-2.68
				C56.82,162.57,55.84,162.17,54.63,162.17z M56.04,167.6c-0.35,0.44-0.82,0.66-1.43,0.66c-0.61,0-1.07-0.22-1.43-0.66
				c-0.34-0.43-0.5-0.93-0.5-1.54c0-0.63,0.16-1.13,0.5-1.54c0.35-0.45,0.82-0.68,1.43-0.68s1.07,0.22,1.43,0.68
				c0.33,0.41,0.5,0.92,0.5,1.54C56.54,166.65,56.38,167.16,56.04,167.6z"/>
			<path class="st0" d="M64.78,155.13h-0.86c-0.19,0-0.33,0.15-0.33,0.34v8.17h-1.55v-6.99l0.03-0.13c0-0.01,0.02-0.05,0.06-0.13
				c0.04-0.08,0.16-0.33-0.03-0.6c-0.11-0.12-0.3-0.18-0.71-0.22h-0.96c-0.19,0-0.33,0.15-0.33,0.34v15.79
				c0,0.19,0.15,0.34,0.33,0.34h1.28c0.19,0,0.33-0.15,0.33-0.34v-6.38h1.55v7.44c0,0.19,0.15,0.34,0.33,0.34h1.32
				c0.19,0,0.33-0.15,0.33-0.34v-16.36c0-0.07,0.01-0.14,0.03-0.21c0-0.01,0.02-0.05,0.04-0.11c0.25-0.42,0.03-0.64,0.01-0.64
				C65.51,155.27,65.27,155.19,64.78,155.13z"/>
			<path class="st0" d="M86.95,158.81h-2.77v-2.59c0-0.04,0.01-0.09,0.01-0.09c0.02-0.05,0.05-0.1,0.09-0.16
				c0.21-0.35,0.12-0.55,0.04-0.63c-0.11-0.15-0.29-0.21-0.74-0.25h-1.1c-0.19,0-0.33,0.15-0.33,0.34v10.41
				c0,0.19,0.15,0.34,0.33,0.34h1.38c0.19,0,0.33-0.15,0.33-0.34v-1.45h2.77c0.19,0,0.33-0.15,0.33-0.34v-1.16
				c0-0.18-0.15-0.34-0.33-0.34h-2.77v-2h2.77c0.19,0,0.33-0.15,0.33-0.34v-1.08C87.28,158.96,87.13,158.81,86.95,158.81z"/>
			<path class="st0" d="M82.4,167.05C82.39,167.05,82.39,167.05,82.4,167.05c-1.11-0.52-2.68-0.78-4.69-0.78
				c-2.14,0-3.79,0.27-4.89,0.8c-1.2,0.54-1.81,1.36-1.81,2.45c0,1.14,0.61,2.01,1.79,2.58c1.12,0.57,2.78,0.86,4.93,0.86
				c1.99,0,3.56-0.3,4.68-0.88c1.14-0.6,1.71-1.46,1.71-2.56C84.12,168.44,83.54,167.61,82.4,167.05z M81.06,170.7L81.06,170.7
				c-0.77,0.33-1.87,0.5-3.27,0.5c-1.61,0-2.85-0.17-3.69-0.51c-1.07-0.43-1.07-0.97-1.07-1.14c0-0.17,0-0.67,1.04-1.06
				c0.84-0.32,2.06-0.49,3.65-0.49c1.43,0,2.54,0.16,3.32,0.49c1.01,0.39,1.01,0.9,1.01,1.06C82.05,170.04,81.73,170.41,81.06,170.7
				z"/>
			<path class="st0" d="M77.6,163.44C77.6,163.44,77.6,163.43,77.6,163.44c0.82-0.78,1.23-1.72,1.23-2.8c0-1.07-0.41-2.01-1.23-2.78
				c-0.9-0.81-2.13-1.23-3.65-1.23c-1.52,0-2.75,0.41-3.67,1.23c-0.82,0.77-1.23,1.7-1.23,2.78c0,1.09,0.41,2.03,1.23,2.8
				c0.91,0.81,2.14,1.22,3.66,1.22C75.48,164.66,76.7,164.25,77.6,163.44z M71.14,160.64c0-0.61,0.22-1.1,0.66-1.5
				c0.52-0.46,1.25-0.7,2.16-0.7c0.9,0,1.62,0.23,2.13,0.7c0.46,0.41,0.68,0.9,0.68,1.5c0,0.58-0.23,1.08-0.68,1.52
				c-0.51,0.46-1.23,0.7-2.13,0.7c-0.91,0-1.63-0.24-2.15-0.69C71.36,161.73,71.14,161.23,71.14,160.64z"/>
			<path class="st0" d="M91.91,162.4c0.07,0.07,0.15,0.11,0.25,0.11c0.02,0,0.05,0,0.07-0.01c1.75-0.36,3.29-0.99,4.58-1.86
				c0,0,0,0,0,0c1.02-0.7,1.81-1.49,2.38-2.36c0.48,0.75,1.22,1.47,2.22,2.13c1.34,0.91,2.95,1.58,4.78,1.98
				c0.13,0.03,0.25-0.02,0.33-0.11l1-1.18c0.08-0.1,0.1-0.23,0.06-0.35c-0.05-0.11-0.16-0.19-0.28-0.21
				c-1.99-0.18-3.68-0.77-5.04-1.77c-1.11-0.78-1.76-1.58-1.9-2.38c0.01-0.02,0.03-0.06,0.06-0.1c0.05-0.08,0.19-0.28,0.07-0.52
				c-0.1-0.17-0.29-0.26-0.65-0.32l-1.22-0.2c-0.09-0.01-0.19,0.01-0.27,0.07c-0.08,0.06-0.12,0.15-0.12,0.25
				c-0.04,1.1-0.76,2.19-2.15,3.26c-1.44,1.07-3.14,1.67-5.07,1.78c-0.13,0.01-0.24,0.09-0.29,0.21c-0.05,0.12-0.02,0.26,0.07,0.35
				L91.91,162.4z"/>
			<path class="st0" d="M107.86,163.97h-17.3c-0.19,0-0.33,0.15-0.33,0.34v1.1c0,0.19,0.15,0.34,0.33,0.34h7.67v7.4
				c0,0.19,0.15,0.34,0.33,0.34h1.42c0.19,0,0.33-0.15,0.33-0.34v-7.4h7.55c0.19,0,0.33-0.15,0.33-0.34v-1.1
				C108.2,164.12,108.05,163.97,107.86,163.97z"/>
			<path class="st0" d="M116.8,160.93c0.43,0.75,0.98,1.47,1.64,2.16c0.86,0.89,1.87,1.64,3.01,2.24c0.12,0.07,0.29,0.05,0.39-0.05
				l1.06-1c0.09-0.08,0.12-0.2,0.1-0.32c-0.03-0.11-0.11-0.21-0.22-0.25c-1.22-0.41-2.35-1.22-3.35-2.41
				c-1.05-1.24-1.59-2.44-1.59-3.57c0-0.15,0.02-0.29,0.05-0.4c0.02-0.05,0.05-0.13,0.14-0.3c0.06-0.12,0.2-0.44,0.04-0.65
				c-0.12-0.2-0.39-0.27-0.75-0.3l-1.1-0.1c-0.09,0-0.19,0.03-0.27,0.1c-0.07,0.07-0.11,0.17-0.1,0.27c0.14,1.64-0.33,3.25-1.4,4.77
				c-0.98,1.42-2.23,2.43-3.72,3.02c-0.11,0.04-0.19,0.14-0.21,0.26c-0.02,0.12,0.02,0.23,0.11,0.31l1.04,0.88
				c0.06,0.05,0.14,0.08,0.22,0.08c0.05,0,0.1-0.01,0.14-0.03c1.15-0.55,2.19-1.34,3.11-2.34
				C115.84,162.54,116.39,161.74,116.8,160.93z"/>
			<path class="st0" d="M126.94,171.12h-11.38v-3.14c0-0.02,0.01-0.08,0.01-0.12c0.02-0.03,0.04-0.06,0.06-0.1
				c0.26-0.41,0-0.61-0.01-0.61c-0.12-0.12-0.29-0.16-0.71-0.16h-1.04c-0.19,0-0.33,0.15-0.33,0.34v5.22c0,0.18,0.15,0.34,0.33,0.34
				h13.07c0.19,0,0.33-0.15,0.33-0.34v-1.1C127.27,171.27,127.12,171.12,126.94,171.12z"/>
			<path class="st0" d="M129.12,162.17h-2.73v-6.09l0.05-0.09c0.11-0.22,0.13-0.41,0.07-0.57c-0.01-0.03-0.03-0.06-0.05-0.09
				c-0.13-0.16-0.35-0.22-0.77-0.22h-0.96c-0.19,0-0.33,0.15-0.33,0.34v13.38c0,0.18,0.15,0.34,0.33,0.34h1.34
				c0.19,0,0.33-0.15,0.33-0.34v-4.91h2.73c0.19,0,0.33-0.15,0.33-0.34v-1.08C129.45,162.32,129.31,162.17,129.12,162.17z"/>
			<path class="st0" d="M134.53,162.93h11.5c0.19,0,0.33-0.15,0.33-0.34v-6.4c0-0.04,0.01-0.09,0-0.09c0,0,0.01-0.03,0.08-0.15
				c0.07-0.17,0.08-0.31,0.05-0.44c-0.01-0.06-0.04-0.11-0.09-0.16c-0.13-0.13-0.33-0.16-0.59-0.16h-1.14
				c-0.19,0-0.33,0.15-0.33,0.34v1.88h-8.12v-1.2l0.02-0.09c0,0,0.01-0.03,0.06-0.1c0.19-0.35,0.07-0.55-0.02-0.64
				c-0.13-0.13-0.33-0.18-0.79-0.18h-0.96c-0.19,0-0.33,0.15-0.33,0.34v7.03C134.2,162.78,134.35,162.93,134.53,162.93z
				 M136.23,159.12h8.12v2.08h-8.12V159.12z"/>
			<path class="st0" d="M148.92,164.6h-17.3c-0.19,0-0.33,0.15-0.33,0.34v1.1c0,0.19,0.15,0.34,0.33,0.34h7.72v6.58
				c0,0.19,0.15,0.34,0.33,0.34h1.4c0.19,0,0.33-0.15,0.33-0.34v-6.58h7.51c0.19,0,0.33-0.15,0.33-0.34v-1.1
				C149.26,164.75,149.11,164.6,148.92,164.6z"/>
		</g>
	</g>
	<g>
		<g>
			<path class="st1" d="M55.51,99.53c-1.53,2.27-2.71,5.43-2.71,9.73c0,4.23,1.2,7.36,2.71,9.65h-2.16c-1.36-1.91-2.9-5.01-2.9-9.65
				c0.03-4.66,1.53-7.8,2.9-9.73H55.51z"/>
			<path class="st1" d="M70.56,107.87c0,5.4-3.28,8.48-7.72,8.48c-4.55,0-7.42-3.47-7.42-8.2c0-4.95,3.11-8.44,7.65-8.44
				C67.78,99.72,70.56,103.28,70.56,107.87z M58.53,108.11c0,3.27,1.64,5.91,4.47,5.91c2.85,0,4.45-2.65,4.45-6.02
				c0-3.03-1.51-5.93-4.45-5.93C60.08,102.06,58.53,104.78,58.53,108.11z"/>
			<path class="st1" d="M71.89,100.2c1.1-0.19,2.75-0.33,4.45-0.33c2.32,0,3.9,0.38,4.98,1.29c0.88,0.74,1.38,1.87,1.38,3.23
				c0,2.08-1.41,3.49-2.92,4.04v0.07c1.15,0.43,1.84,1.55,2.25,3.1c0.5,2.01,0.94,3.88,1.27,4.5h-3.04
				c-0.24-0.48-0.62-1.79-1.07-3.8c-0.46-2.1-1.22-2.77-2.9-2.82h-1.48v6.63h-2.92V100.2z M74.81,107.32h1.74
				c1.99,0,3.23-1.05,3.23-2.65c0-1.77-1.24-2.58-3.16-2.58c-0.93,0-1.53,0.07-1.81,0.14V107.32z"/>
			<path class="st1" d="M97.22,115.35c-1.03,0.39-3.03,0.91-5.19,0.91c-2.73,0-4.78-0.69-6.32-2.15c-1.43-1.36-2.27-3.49-2.25-5.93
				c0-5.09,3.64-8.36,8.97-8.36c1.99,0,3.54,0.41,4.29,0.76l-0.65,2.37c-0.88-0.38-1.96-0.69-3.66-0.69c-3.45,0-5.86,2.03-5.86,5.78
				c0,3.66,2.25,5.83,5.6,5.83c1.06,0,1.84-0.14,2.23-0.33v-4.01h-2.85v-2.32h5.69V115.35z"/>
			<path class="st1" d="M102.27,111.52l-1.39,4.57h-3.04l5.17-16.11h3.75l5.24,16.11h-3.16l-1.45-4.57H102.27z M106.89,109.3
				l-1.26-3.97c-0.31-0.98-0.58-2.08-0.82-3.01h-0.05c-0.24,0.93-0.48,2.06-0.77,3.01l-1.24,3.97H106.89z"/>
			<path class="st1" d="M113.06,116.09V99.98h3.35l4.16,6.91c1.08,1.79,2.01,3.66,2.75,5.4h0.05c-0.19-2.15-0.26-4.23-0.26-6.69
				v-5.62h2.73v16.11h-3.03l-4.21-7.1c-1.03-1.74-2.1-3.73-2.9-5.54l-0.07,0.02c0.12,2.08,0.14,4.21,0.14,6.86v5.76H113.06z"/>
			<path class="st1" d="M130.97,99.98v16.11h-2.94V99.98H130.97z"/>
			<path class="st1" d="M144.7,115.62c-0.69,0.35-2.23,0.74-4.17,0.74c-5.12,0-8.22-3.23-8.22-8.12c0-5.31,3.68-8.51,8.61-8.51
				c1.94,0,3.32,0.41,3.92,0.72l-0.65,2.34c-0.77-0.33-1.81-0.62-3.16-0.62c-3.28,0-5.64,2.06-5.64,5.93c0,3.54,2.08,5.81,5.61,5.81
				c1.2,0,2.44-0.24,3.21-0.6L144.7,115.62z"/>
			<path class="st1" d="M145.3,118.91c1.51-2.27,2.68-5.45,2.68-9.7c0-4.25-1.17-7.39-2.68-9.68h2.13c1.39,1.91,2.92,5.02,2.92,9.71
				c-0.02,4.66-1.53,7.75-2.92,9.68H145.3z"/>
		</g>
		<g>
			<g>
				<path class="st1" d="M56.95,90.93h-3.07v-9.37h-5.69v9.12h-3.13v-9.12h-6.1v-3.4h23.77v3.4h-5.79V90.93z M58.53,67.39
					c0,1.15-0.2,2.22-0.6,3.24c-0.41,1.01-0.95,1.9-1.63,2.66c-0.69,0.76-1.49,1.36-2.41,1.79c-0.91,0.43-1.89,0.64-2.92,0.64
					c-1.06,0-2.04-0.21-2.96-0.64c-0.92-0.43-1.7-1.03-2.37-1.79c-0.69-0.76-1.23-1.65-1.62-2.66c-0.39-1.01-0.59-2.09-0.59-3.24
					c0-1.14,0.2-2.22,0.59-3.24c0.39-1.01,0.93-1.9,1.62-2.66c0.67-0.76,1.45-1.37,2.37-1.81c0.92-0.44,1.9-0.66,2.96-0.66
					c1.03,0,2,0.22,2.92,0.66c0.92,0.44,1.72,1.04,2.41,1.81c0.68,0.76,1.23,1.65,1.63,2.66C58.33,65.17,58.53,66.25,58.53,67.39z
					 M55.32,67.39c0-0.67-0.12-1.3-0.35-1.9c-0.23-0.6-0.54-1.12-0.94-1.57c-0.4-0.43-0.86-0.78-1.39-1.04
					c-0.52-0.26-1.08-0.39-1.67-0.39c-0.62,0-1.18,0.13-1.71,0.39c-0.52,0.26-0.98,0.61-1.38,1.04c-0.41,0.45-0.71,0.98-0.94,1.57
					c-0.22,0.6-0.33,1.23-0.33,1.9c0,0.69,0.11,1.33,0.33,1.92c0.22,0.58,0.53,1.1,0.94,1.56c0.4,0.45,0.86,0.81,1.38,1.05
					c0.53,0.25,1.09,0.38,1.71,0.38c0.59,0,1.15-0.12,1.67-0.38c0.52-0.25,0.99-0.6,1.39-1.05c0.4-0.45,0.71-0.97,0.94-1.56
					C55.2,68.72,55.32,68.09,55.32,67.39z"/>
			</g>
			<g>
				<path class="st1" d="M66.16,64.79h8.68c-0.55,7.47-3.75,12.98-9.79,16.84l-0.17,0.11l1.69,3.34l0.21-0.13
					c7.67-4.92,11.39-12.58,11.39-23.39v-0.22H66.16V64.79z"/>
				<rect x="82.12" y="57.92" class="st1" width="3.23" height="32.83"/>
				<polygon class="st1" points="89.63,79.35 99.19,79.35 99.19,90.78 102.42,90.78 102.42,79.35 112.12,79.35 112.12,75.89 
					89.63,75.89 				"/>
				<path class="st1" d="M91.96,73.28c3.99-0.85,7.3-3.44,8.95-6.99c1.69,3.56,4.99,6.15,8.92,6.99l0.19,0.04l1.24-3.41l-0.26-0.05
					c-4.71-0.89-8.41-4.83-8.41-8.96v-1.94h-3.39v1.94c0,4.21-3.61,8.06-8.41,8.96l-0.26,0.05l1.24,3.41L91.96,73.28z"/>
				<polygon class="st1" points="121.36,79.47 118.13,79.47 118.13,90.14 134.94,90.14 134.94,86.68 121.36,86.68 				"/>
				<path class="st1" d="M121.93,70.63c1.19,3.06,3.18,5.36,5.64,6.5l0.2,0.09l1.6-3.35l-0.21-0.09c-3.45-1.57-5.68-5.45-5.68-9.87
					v-4.02h-3.26v3.99c0,4.95-2.25,9.04-5.86,10.66l-0.22,0.1l1.72,3.27l0.19-0.09C118.76,76.54,120.78,74.06,121.93,70.63z"/>
				<polygon class="st1" points="133.97,57.88 130.74,57.88 130.74,82.21 133.97,82.21 133.97,71.1 137.42,71.1 137.42,67.6 
					133.97,67.6 				"/>
				<polygon class="st1" points="161.84,74.58 161.84,71.19 139.3,71.19 139.3,74.58 148.92,74.58 148.92,76.82 141.92,76.82 
					141.92,80.06 155.88,80.06 155.88,81.91 141.97,81.91 141.97,90.46 159.76,90.46 159.76,87.18 145.18,87.18 145.18,84.98 
					159.06,84.98 159.06,76.82 152.17,76.82 152.17,74.58 				"/>
				<path class="st1" d="M158.98,58.92h-16.87v10.45h16.87V58.92z M145.31,66.02v-3.78h10.49v3.78H145.31z"/>
			</g>
		</g>
	</g>
</g>
</svg>
