<svg width="92" height="67" viewBox="0 0 92 67" fill="none" xmlns="http://www.w3.org/2000/svg">
<path d="M63.7354 14.519C63.7354 15.3976 63.0259 16.1071 62.1472 16.1071C61.2686 16.1071 60.5591 15.3976 60.5591 14.519C60.5591 13.6403 61.2686 12.9308 62.1472 12.9308C63.0259 12.9261 63.7354 13.6403 63.7354 14.519Z" fill="white"/>
<path d="M59.6569 11.0137C60.355 11.0137 60.9208 10.4478 60.9208 9.74979C60.9208 9.05173 60.355 8.48584 59.6569 8.48584C58.9588 8.48584 58.3929 9.05173 58.3929 9.74979C58.3929 10.4478 58.9588 11.0137 59.6569 11.0137Z" fill="white"/>
<path d="M55.9308 8.26031C56.481 8.26031 56.9269 7.81433 56.9269 7.26419C56.9269 6.71405 56.481 6.26807 55.9308 6.26807C55.3807 6.26807 54.9347 6.71405 54.9347 7.26419C54.9347 7.81433 55.3807 8.26031 55.9308 8.26031Z" fill="white"/>
<path d="M53.605 5.65247C53.605 6.11764 53.2291 6.49353 52.7639 6.49353C52.2987 6.49353 51.9229 6.11764 51.9229 5.65247C51.9229 5.1873 52.2987 4.8114 52.7639 4.8114C53.2244 4.8114 53.605 5.192 53.605 5.65247Z" fill="white"/>
<path d="M49.597 5.65253C49.9836 5.65253 50.2971 5.33908 50.2971 4.95242C50.2971 4.56577 49.9836 4.25232 49.597 4.25232C49.2103 4.25232 48.8969 4.56577 48.8969 4.95242C48.8969 5.33908 49.2103 5.65253 49.597 5.65253Z" fill="white"/>
<path d="M45.528 24.0573C37.324 20.5614 30.0364 21.9053 26.3385 23.0564C27.0245 23.8834 27.8186 24.6634 28.7113 25.387C32.959 24.5224 39.2129 24.2452 46.1717 27.2101C49.442 28.6009 52.5666 29.2258 55.3811 29.3997C57.9325 28.5774 60.2208 27.4309 62.1425 26.0401C60.6718 26.2938 59.0038 26.4677 57.1666 26.4677C53.746 26.463 49.7662 25.8616 45.528 24.0573Z" fill="white"/>
<path d="M45.5279 19.3915C34.9276 14.8761 25.8498 18.4377 24.0878 19.2224C24.3979 20.0587 24.8067 20.8669 25.3047 21.6422C29.0496 20.3595 36.9951 18.635 46.1716 22.5443C53.9714 25.8663 60.9255 24.8279 64.769 23.7284C65.8497 22.5678 66.7143 21.3039 67.311 19.9601C65.4503 20.6837 61.823 21.7973 57.1666 21.7973C53.7459 21.802 49.7661 21.1958 45.5279 19.3915Z" fill="white"/>
<path d="M45.5279 28.7184C39.8143 26.2845 34.5471 26.1999 30.6237 26.7591C34.6269 29.3011 39.9741 30.8563 45.8521 30.8563C47.6047 30.8563 49.3057 30.7154 50.9408 30.4523C49.2023 30.0717 47.3933 29.5125 45.5279 28.7184Z" fill="white"/>
<path d="M25.4692 15.4258C25.4692 12.0052 27.485 8.73487 31.1499 6.21637C35.0498 3.53811 40.2701 2.06273 45.8521 2.06273C51.4342 2.06273 56.6591 3.53811 60.5543 6.21637C64.2193 8.73487 66.2351 12.0052 66.2351 15.4258C66.2351 16.5018 66.033 17.5684 65.643 18.5974L67.9736 18.0336C68.185 17.1878 68.2978 16.3186 68.2978 15.4305C68.2978 6.90708 58.2473 0 45.8474 0C33.4476 0 23.3971 6.90708 23.3971 15.4305C23.3971 16.0601 23.4582 16.6804 23.5662 17.2865L25.5538 16.6522C25.4974 16.2434 25.4692 15.8346 25.4692 15.4258Z" fill="white"/>
<path fill-rule="evenodd" clip-rule="evenodd" d="M85.3258 48.4106C85.2647 48.4153 85.2083 48.4059 85.1472 48.3824C85.0345 48.3354 84.9593 48.232 84.8935 48.1286C84.1511 46.9681 84.3109 45.4081 84.5599 44.1207C84.7478 43.1386 84.9781 42.1754 85.1237 41.184C85.1895 40.7376 85.213 40.263 84.7055 40.0986C83.8222 39.812 82.7462 40.4369 81.891 40.6013C80.956 40.7799 80.0726 41.2028 79.1564 41.4659C78.3012 41.7102 77.3991 41.8559 76.5251 41.6961C76.013 41.6022 75.5008 41.386 75.1813 40.9772C74.8618 40.5684 74.8054 39.9294 75.1484 39.5394C75.3598 39.2998 75.6747 39.1917 75.9754 39.0884C77.3333 38.6326 78.6912 38.1768 80.0914 37.8808C81.0077 37.6881 81.9427 37.5613 82.8778 37.5566C83.9115 37.5472 84.9029 37.6083 85.852 38.064C86.7166 38.4728 87.4637 39.1588 87.8819 40.0187C88.3423 40.9631 88.3893 42.0673 88.1873 43.0963C87.9852 44.1254 87.5529 45.0933 87.0784 46.0283C86.7307 46.7143 86.3548 47.3956 85.8896 48.0112C85.744 48.1944 85.5372 48.3918 85.3258 48.4106Z" fill="white"/>
<path fill-rule="evenodd" clip-rule="evenodd" d="M21.4424 57.4133C23.2608 56.6709 25.6148 57.3851 26.8506 58.884C27.2171 59.3303 27.4708 59.8989 27.452 60.4768C27.4332 61.0266 27.1795 61.5387 26.8976 62.0086C26.3337 62.9389 25.6242 63.7659 24.9476 64.6117C24.3415 65.3588 23.5474 66.0119 22.6735 66.4207C22.2271 66.6274 21.729 66.7778 21.2404 66.6979C20.7846 66.6227 20.3805 66.3596 20.0328 66.0542C19.5864 65.6595 19.2011 65.1755 19.0179 64.607C18.8299 64.0196 18.8675 63.3759 19.0226 62.7792C19.2528 61.8911 19.6804 60.9937 20.1832 60.2325C21.3249 58.494 20.2912 57.8831 21.4424 57.4133ZM25.5679 60.4298C25.5303 60.162 25.394 59.9177 25.2108 59.7156C25.0322 59.5136 24.8114 59.3538 24.5858 59.2035C24.5341 59.1706 24.4731 59.133 24.412 59.1424C24.365 59.1471 24.3274 59.18 24.2898 59.2129C23.7777 59.6545 23.5004 60.2842 23.2702 60.9044C23.0353 61.5293 22.8802 62.1824 22.6923 62.8262C22.6077 63.1175 22.5184 63.4041 22.4103 63.686C22.4479 63.5874 22.7439 63.4464 22.8332 63.3853C23.0024 63.2725 23.1715 63.1645 23.3454 63.0564C23.6884 62.8403 24.0361 62.6241 24.3556 62.3751C24.7597 62.0603 25.1638 61.6985 25.4034 61.2427C25.5303 60.9937 25.6007 60.7164 25.5679 60.4298Z" fill="white"/>
<path fill-rule="evenodd" clip-rule="evenodd" d="M59.4172 43.3689C58.4164 43.1198 57.4109 42.899 56.4194 42.6265C55.3998 42.3493 54.2815 42.0673 53.4405 41.3907C53.3418 41.3109 53.2431 41.2216 53.1867 41.1088C53.1257 40.9819 53.121 40.8363 53.1444 40.6953C53.229 40.2818 53.5955 39.9717 53.9902 39.8308C54.3896 39.6898 54.8219 39.6945 55.2448 39.6945C57.4907 39.6992 59.7696 39.6287 61.931 39.0132C63.6554 38.5245 65.5725 37.5613 67.3862 38.2144C67.5976 38.2896 67.8232 38.4118 67.8842 38.6326C67.9265 38.7877 67.8748 38.9521 67.8185 39.0978C67.4238 40.0939 66.6955 40.9538 65.7792 41.5129C64.8818 42.0579 63.6554 42.0908 62.9271 42.9084C62.2646 43.6508 62.1189 47.7434 62.1143 48.8569C62.1049 50.8586 59.7837 50.774 59.0648 49.5195C58.1016 47.8514 59.093 45.0933 59.4172 43.3689Z" fill="white"/>
<path fill-rule="evenodd" clip-rule="evenodd" d="M64.9053 50.7364C65.8497 49.9095 70.8867 50.7505 68.0064 51.1452C65.7087 51.4553 62.9177 54.2182 61.0429 53.9926C60.4321 53.9174 59.6756 52.5407 60.4321 52.1648C60.8738 51.944 61.7243 52.2635 62.1612 51.9111C64.4777 50.0551 64.7549 45.5397 66.329 43.2702C66.8176 42.5654 68.4716 43.8857 68.5139 44.3885C68.5984 45.3235 67.6916 46.9023 67.4473 47.3346C66.7613 48.5374 65.7698 49.5101 64.9053 50.7364Z" fill="white"/>
<path fill-rule="evenodd" clip-rule="evenodd" d="M40.7634 48.4341C42.0321 48.2884 44.4096 48.4576 43.9726 50.4216C43.8035 51.1828 42.4314 53.0811 42.6617 53.5415C42.8261 53.8657 43.3148 53.7107 43.5779 53.6261C44.0196 53.4805 44.3955 53.3301 44.8748 53.4053C45.1567 53.4476 45.4386 53.565 45.6078 53.7953C45.8521 54.1289 45.7863 54.594 45.6782 54.9934C45.3681 56.1399 44.809 57.23 44.0149 58.1134C42.9483 59.2974 41.0312 60.5849 39.4149 59.7344C38.9826 59.5089 38.7054 58.9638 38.6913 58.3812C38.6443 56.5675 40.0915 54.9229 40.8621 53.3677C41.1393 52.8038 42.5301 50.4921 42.2153 50.0222C41.9945 49.6933 41.238 50.0504 41.0406 50.1115C38.3577 50.9338 35.6747 51.8594 33.6778 53.363C33.3066 53.6402 33.0341 54.1148 32.6394 54.1759C31.7466 54.3168 30.1491 53.5744 30.5626 52.4138C30.727 51.9487 32.5125 51.1875 33.0012 50.9667C33.6402 50.68 34.4484 50.2994 35.4868 49.9282C37.23 49.308 37.8314 49.3456 38.1509 47.4003C38.3483 46.2116 38.6349 44.6986 38.7853 43.4253C38.9638 41.8935 39.1189 39.9764 39.7814 38.2285C40.2513 36.988 42.0227 37.9184 42.6711 38.5903C45.011 41.0242 42.6993 47.4285 40.7634 48.4341ZM40.5379 58.1509C41.1064 58.4376 43.78 55.9802 43.6578 55.3928C43.5967 55.1062 42.3516 54.2322 42.2576 54.2651C41.8065 54.4014 40.0069 57.8831 40.5379 58.1509Z" fill="white"/>
<path fill-rule="evenodd" clip-rule="evenodd" d="M50.4145 62.8497C50.5414 61.2991 50.7387 59.7485 51.0065 58.2167C51.1334 57.4837 51.2744 56.7554 51.42 56.0272C51.4905 55.6701 51.5657 55.3177 51.6409 54.9606C51.6785 54.782 51.7113 54.1759 51.8429 54.0584C51.312 54.5377 49.8178 55.8016 49.1412 56.0976C49.0801 56.1258 49.0237 56.8024 49.0049 56.8823C48.925 57.2864 48.831 57.6811 48.7371 58.0805C48.5303 58.9685 48.286 59.8331 47.9289 60.6695C47.8725 60.7963 47.7832 60.9467 47.6423 60.9373C47.5248 60.9279 47.4543 60.8057 47.4167 60.6929C47.2523 60.256 47.21 59.7861 47.1818 59.3209C46.9751 55.8768 47.4073 52.428 47.9054 49.012C48.0605 47.9595 48.2202 46.9023 48.5068 45.878C48.5773 45.6243 48.6948 45.3329 48.9532 45.2671C49.1928 45.2061 49.4278 45.3752 49.5922 45.5585C50.5696 46.6298 50.2829 48.0864 50.142 49.3973C50.0198 50.5532 49.7896 51.7466 49.8178 52.9119C49.8178 52.8978 50.5743 52.63 50.6588 52.5924C50.9361 52.4655 51.1945 52.3011 51.4294 52.1084C51.904 51.7185 52.2799 51.211 52.543 50.6565C53.0317 49.6322 53.027 48.5656 53.2243 47.4802C53.3982 46.5217 53.6942 45.5914 54.2298 44.7644C54.3567 44.567 54.5541 44.3603 54.7843 44.3979C55.0333 44.4402 55.132 44.7362 55.1743 44.9852C55.2542 45.4692 55.287 45.9579 55.2917 46.4512C55.334 50.727 53.4593 54.7538 52.3316 58.8793C51.9839 60.1479 51.7066 61.4353 51.3308 62.6946C51.2509 62.9577 51.1522 63.2443 50.922 63.3947C50.828 63.4558 50.7058 63.4934 50.6025 63.4511C50.4051 63.3759 50.3863 63.1081 50.4051 62.8966C50.4098 62.8872 50.4098 62.8684 50.4145 62.8497Z" fill="white"/>
<path fill-rule="evenodd" clip-rule="evenodd" d="M25.925 47.8843C24.8678 48.0958 23.9186 50.041 22.7721 50.0927C22.3211 50.1115 21.1417 49.1201 21.2498 48.7254C21.386 48.2273 23.6884 47.5037 24.2992 47.1466C26.2445 46.0049 27.3299 41.6727 27.4567 39.5066C27.4755 39.1918 27.4708 38.8769 27.4802 38.5621C27.4849 38.44 27.4896 38.3131 27.5507 38.2097C27.6353 38.0688 27.8044 37.9983 27.9689 37.9983C28.1333 37.9983 28.2884 38.0641 28.4341 38.1393C29.4678 38.6749 29.9752 39.8449 29.8108 40.9679C29.6134 42.3258 29.1905 45.9673 29.0073 47.3299C28.6408 50.0504 28.2179 52.7851 27.5037 55.4398C27.4567 55.6184 27.405 55.8016 27.3534 55.9802C27.3252 56.0695 26.7425 57.3334 26.1458 57.0844C25.9062 56.9857 25.8028 55.6137 25.7793 55.2989C25.5726 52.9213 25.831 50.0457 25.925 47.8843Z" fill="white"/>
<path fill-rule="evenodd" clip-rule="evenodd" d="M63.9232 57.8079C63.7964 57.9771 63.6648 58.1415 63.5333 58.3013C63.303 58.5832 63.0681 58.8557 62.8331 59.133C62.6499 59.3491 62.523 59.6357 62.2082 59.6827C64.6139 59.3397 67.0902 59.133 69.5147 59.4102C70.3511 59.5088 71.1639 59.7109 71.9862 59.8988C72.2352 59.9552 72.5312 60.0586 72.5782 60.3076C72.6252 60.5473 72.395 60.7634 72.1553 60.8057C71.9157 60.848 71.6761 60.7634 71.4411 60.6976C70.3041 60.3828 69.0918 60.4909 67.9312 60.7023C66.5874 60.9466 65.2671 61.3319 63.9749 61.7689C62.7345 62.1918 61.4517 62.5959 60.2818 63.1691C60.0609 63.2772 59.8354 63.3806 59.5957 63.4557C59.2903 63.5497 58.9567 63.592 58.6513 63.4933C58.3553 63.3947 58.1157 63.1738 57.8901 62.953C57.3357 62.4032 56.8047 61.8065 56.5181 61.0829C56.4523 60.9185 56.4006 60.7446 56.4194 60.5661C56.4335 60.3922 56.5322 60.2137 56.692 60.1432C56.8 60.0962 56.9175 60.1009 57.035 60.1103C57.486 60.1479 57.8666 60.3734 58.2989 60.4392C58.609 60.4862 58.9379 60.458 59.2527 60.4298C59.8683 60.3734 60.5778 60.2982 61.1416 60.0257C61.7102 59.7485 61.8652 58.804 61.9827 58.259C62.1612 57.4273 62.2975 56.591 62.5277 55.7687C62.7627 54.9182 63.0352 54.0772 63.2513 53.222C63.3171 52.9636 63.3782 52.7004 63.5051 52.4702C63.6319 52.2353 63.8387 52.0332 64.0971 51.9675C64.3931 51.897 64.7126 52.0238 64.9241 52.2353C65.1402 52.4514 65.2624 52.738 65.3469 53.0294C65.6712 54.1946 65.3516 55.4586 64.7737 56.5205C64.5294 56.9763 64.2381 57.3991 63.9232 57.8079Z" fill="white"/>
<path fill-rule="evenodd" clip-rule="evenodd" d="M83.6014 65.4433C83.5638 65.4151 83.5262 65.3823 83.4933 65.3494C82.812 64.6774 82.4408 63.7471 82.2951 62.8027C81.8676 60.007 82.8543 57.1314 83.5356 54.4578C83.5356 54.4625 81.4212 54.6786 81.1769 54.7256C80.3311 54.8901 79.49 55.1109 78.6537 55.3177C76.995 55.7358 75.3082 56.1493 73.5838 56.1305C73.0011 56.1211 72.4091 56.0648 71.8641 55.8486C71.319 55.6325 70.8256 55.2519 70.5719 54.7256C70.4028 54.3779 70.3605 53.9221 70.6189 53.6355C70.9102 53.3113 71.4177 53.3536 71.85 53.3818C73.2972 53.4711 74.7256 53.1281 76.1446 52.818C79.9599 51.9816 83.8222 51.3614 87.7033 50.9573C88.9297 50.8304 90.1608 50.727 91.3871 50.7693C91.5093 50.774 91.6596 50.8022 91.6878 50.9197C91.7113 51.009 91.6455 51.0935 91.5798 51.164C91.2321 51.5305 90.7575 51.8829 90.2782 52.0615C89.4606 52.3716 85.6171 52.6159 86.1575 54.1195C86.2185 54.2886 86.336 54.4343 86.3971 54.6035C86.4864 54.8431 86.4535 55.1109 86.4112 55.3646C86.0729 57.2864 85.0486 59.039 84.7573 60.9655C84.5552 62.2905 84.7103 63.6531 84.4284 64.9641C84.372 65.2366 84.231 65.5608 83.9538 65.5843C83.8316 65.5937 83.7094 65.5279 83.6014 65.4433Z" fill="white"/>
<path fill-rule="evenodd" clip-rule="evenodd" d="M10.6965 41.0619C11.2274 40.6484 12.3457 41.2451 12.9095 41.3579C14.2299 41.6257 15.428 40.9679 16.6403 40.5591C17.2135 40.3617 17.8244 40.2255 18.4305 40.2913C18.6513 40.3148 18.9051 40.3946 18.985 40.6014C19.0272 40.7141 19.0131 40.841 18.9803 40.9585C18.8816 41.3156 18.6654 41.6257 18.5339 41.9734C18.407 42.2976 18.36 42.6453 18.2708 42.9836C18.0922 43.6743 17.7351 44.3321 17.1995 44.8067C16.6638 45.2813 15.9449 45.5632 15.2307 45.5068C14.4789 45.4457 13.8023 45.0322 13.1539 44.647C12.4632 44.2382 11.7537 43.8388 11.1757 43.2843C10.922 43.0447 10.6965 42.7675 10.5508 42.4527C10.4098 42.1332 10.3582 41.7667 10.4615 41.433C10.5179 41.2545 10.5978 41.1417 10.6965 41.0619Z" fill="white"/>
<path fill-rule="evenodd" clip-rule="evenodd" d="M19.2246 50.7083C20.8128 50.4734 22.5137 51.3426 23.7918 51.8219C24.5342 52.0991 24.4919 52.8885 23.6132 52.9026C22.3493 52.9261 20.7047 52.6348 19.4925 52.3904C18.9051 52.273 18.3413 52.3059 17.9983 52.8509C17.8479 53.0858 17.7258 53.3537 17.613 53.6074C17.4344 54.0115 17.1572 54.3827 16.9364 54.7727C16.5276 55.4869 16.1752 56.2434 16.0154 57.0515C15.9684 57.2865 15.9402 57.5261 15.8557 57.7469C15.7711 57.9678 15.6207 58.1792 15.3999 58.2779C15.1791 58.3719 14.93 58.3155 14.775 58.1369C14.6058 57.949 14.6011 57.6671 14.6011 57.4227C14.6058 57.0092 14.6904 56.5676 14.7656 56.1635C14.9347 55.266 15.2401 54.4015 15.5456 53.5463C15.7758 52.9026 16.0107 52.2636 16.1987 51.6058C16.2927 51.2768 16.3725 50.9479 16.4336 50.6096C16.4618 50.4405 16.4759 50.2713 16.5088 50.1022C16.5229 50.0176 16.6169 49.8203 16.5417 49.7498C16.4477 49.6558 15.8322 49.9847 15.6113 50.0787C15.1039 50.2901 14.6293 50.666 13.9574 50.7412C12.623 50.8916 11.3073 50.619 11.0724 49.5383C10.9455 48.9557 11.1476 48.0723 11.8524 48.0958C12.139 48.1052 12.2847 48.5093 12.7545 48.514C13.6191 48.5281 14.93 47.8468 15.7617 47.4897C16.4947 47.1796 17.2512 46.4654 17.956 46.3479C20.6577 45.9015 20.2396 48.9604 19.2246 50.7083Z" fill="white"/>
<path d="M2.36102 54.7773C2.73222 54.8431 3.10341 54.9465 3.47931 54.9465C4.10423 54.9465 4.73856 54.8995 5.36348 54.8431C6.0354 54.7867 6.97513 54.9183 7.445 54.3544C7.67054 54.0819 7.70813 53.7201 7.72693 53.3818C7.78331 52.4656 7.8068 51.5493 7.8256 50.6378C7.88198 48.077 7.94307 45.5068 7.78331 42.9507C7.74102 42.2788 7.65175 41.5411 7.1067 41.09C6.58984 40.6624 5.83335 40.6296 5.13795 40.6202C4.01496 40.6061 2.89197 40.592 1.76899 40.5732C1.50586 40.5685 1.22394 40.5685 0.989003 40.6812C0.542627 40.8927 0.406365 41.4095 0.335885 41.8606C-0.110491 44.6516 -0.0165168 47.4896 0.0821557 50.3136C0.115047 51.2345 0.147937 52.1507 0.270103 53.067C0.340584 53.5932 0.481544 54.1712 0.956112 54.4672C1.20984 54.627 1.51996 54.6739 1.82067 54.7256C2.00862 54.7209 2.18717 54.7444 2.36102 54.7773Z" fill="#B01F24"/>
<path d="M1.82061 42.556C1.89579 42.4104 2.00386 42.2788 2.13542 42.1614C2.26698 42.0486 2.42674 41.964 2.61469 41.8982C2.79794 41.8324 2.99528 41.7996 3.20202 41.7996C3.40407 41.7996 3.60141 41.8324 3.78466 41.8982C3.96791 41.964 4.12767 42.0486 4.26393 42.1614C4.39549 42.2788 4.50356 42.4104 4.58344 42.556C4.66332 42.7017 4.7056 42.8615 4.7056 43.0353C4.7056 43.181 4.67741 43.3219 4.62103 43.4488C4.56464 43.5757 4.48477 43.6931 4.39079 43.7965C4.28742 43.9046 4.16995 43.9938 4.03369 44.0643C3.89743 44.1395 3.75177 44.1912 3.59202 44.2241V44.7456H3.90213C4.09477 44.7456 4.27332 44.7409 4.43778 44.7268C4.60223 44.7127 4.74319 44.6939 4.86536 44.6705C5.00632 44.647 5.13788 44.6188 5.26005 44.5812V41.762H5.96016V43.2374H6.67905V43.4582C6.67905 43.6508 6.5193 43.8106 6.32665 43.8106H5.96016V45.7136C5.96016 45.878 5.93196 46.0096 5.87088 46.0989C5.8098 46.1881 5.74401 46.2539 5.66884 46.2962C5.58896 46.3479 5.49968 46.3761 5.39161 46.3808H5.26005L5.25535 45.0933C5.15668 45.1356 4.99692 45.1826 4.77139 45.239C4.54585 45.2954 4.25453 45.3236 3.90683 45.3236H1.21448V44.7503H2.89191V44.2382C2.71806 44.21 2.5583 44.1583 2.41264 44.0878C2.27168 44.0126 2.14482 43.9234 2.03675 43.82C1.92868 43.7166 1.8488 43.6038 1.79242 43.4723C1.73603 43.3407 1.70784 43.1998 1.70784 43.0447C1.70784 42.8662 1.74543 42.7064 1.82061 42.556ZM5.99305 47.1138C5.99305 47.2547 5.90847 47.3863 5.77691 47.438C5.48089 47.5601 5.19427 47.6494 4.91705 47.7152C4.57404 47.7951 4.25923 47.8327 3.97261 47.828C3.80815 47.828 3.62021 47.8139 3.40877 47.781C3.19732 47.7481 3.00468 47.6964 2.82613 47.6212C2.64288 47.5461 2.48782 47.4474 2.36566 47.3252C2.24349 47.203 2.18241 47.0527 2.18241 46.8694V45.7981H2.59119C2.78384 45.7981 2.88251 45.9297 2.88251 46.1975V46.6627C2.88251 46.7614 2.9107 46.8412 2.96709 46.907C3.02347 46.9728 3.09865 47.0292 3.19732 47.0762C3.296 47.1232 3.40877 47.1561 3.54503 47.1796C3.67659 47.203 3.82695 47.2124 3.9867 47.2124C4.24513 47.2218 4.55055 47.1936 4.89825 47.1279C5.24595 47.0621 5.61245 46.9587 6.00244 46.8178V47.1138H5.99305ZM2.46903 43.3125C2.51132 43.4018 2.5677 43.477 2.64288 43.5428C2.71336 43.6085 2.79324 43.6602 2.89191 43.6931C2.99058 43.7307 3.09395 43.7495 3.21142 43.7495C3.32419 43.7495 3.42756 43.7307 3.52153 43.6931C3.62021 43.6555 3.70478 43.6039 3.77996 43.5428C3.85044 43.477 3.90683 43.4018 3.94912 43.3125C3.9914 43.2233 4.0149 43.134 4.0149 43.0353C4.0149 42.9319 3.9914 42.838 3.94912 42.7534C3.90683 42.6641 3.85044 42.5889 3.77996 42.5232C3.70478 42.4574 3.62021 42.4057 3.52153 42.3681C3.42286 42.3305 3.31949 42.307 3.21142 42.307C3.09395 42.307 2.99058 42.3258 2.89191 42.3681C2.79324 42.4057 2.71336 42.4574 2.64288 42.5232C2.5677 42.5889 2.51132 42.6641 2.46903 42.7534C2.42674 42.8427 2.40794 42.9366 2.40794 43.0353C2.40325 43.134 2.42674 43.2233 2.46903 43.3125Z" fill="white"/>
<path d="M6.57571 52.771V53.0013C6.57571 53.1986 6.41595 53.3537 6.2233 53.3537H1.31787V52.771H3.59674V51.6997C3.38999 51.695 3.18795 51.6715 3 51.6292C2.80736 51.587 2.6382 51.5165 2.49254 51.4272C2.34688 51.3379 2.22472 51.2205 2.14014 51.0748C2.05087 50.9291 2.00858 50.7412 2.00858 50.5203V48.9416H5.8803V49.1718C5.8803 49.3692 5.72054 49.5242 5.5279 49.5242H2.70868V50.3982C2.70868 50.8164 3.09398 51.0278 3.85986 51.0278C4.55527 51.0278 5.27887 50.9103 6.02126 50.6754V50.9761C6.02126 51.1265 5.92729 51.258 5.78163 51.3097C5.56549 51.3849 5.35405 51.4554 5.1426 51.5118C4.86068 51.5917 4.57406 51.6433 4.29214 51.6715V52.7804H6.57571V52.771Z" fill="white"/>
</svg>
